<svg version="1.0" xmlns="http://www.w3.org/2000/svg" viewBox="0 0 512 512"><path d="M47.2.7c26.2.2 69.4.2 96 0 26.6-.1 5.1-.2-47.7-.2C42.7.5 21 .6 47.2.7zm273.5 0c-.5.7 66.8.7 157.3 0 19-.1-8.6-.3-61.2-.5-52.6-.1-95.9.1-96.1.5zM707.4 62c0 5.8.1 8.1.3 5.2.2-2.8.2-7.6 0-10.5-.2-2.8-.3-.5-.3 5.3zm-103 0c0 5.2.1 7.4.3 4.7.2-2.6.2-6.8 0-9.5-.2-2.6-.3-.4-.3 4.8zm103 387.5c0 5.5.1 7.6.3 4.7.2-2.9.2-7.4 0-10-.2-2.6-.3-.2-.3 5.3zm-103 .5c0 5.2.1 7.4.3 4.7.2-2.6.2-6.8 0-9.5-.2-2.6-.3-.4-.3 4.8z" fill="#6CF"/><path d="M194.5 7c4.6 9.2 8.1 21.5 9.4 33.3.7 6 1.1 38.2 1.1 85v75.5l-69.7.4c-38.4.2-73.7.1-78.4-.4-12.2-1-20.5-3.3-31.4-8.7l-9.5-4.7v68.3c0 37.6.2 68.3.5 68.3s2.9-1.3 5.8-2.9c8.1-4.6 22.1-8.8 33.2-10.1 6.6-.7 33.3-1 79.5-.8l69.5.3.3 75c.2 45.6-.1 78.7-.7 84.5-1.4 12.7-4.2 23.3-9 33.5l-4 8.5h129.8l-3.9-8.3c-9.8-20.8-10.1-25.5-9.8-117.7l.3-75.5H382c59.4 0 75.9.3 81.5 1.4 8.6 1.7 21.2 6.2 27 9.6 2.4 1.4 4.6 2.5 4.9 2.5.3 0 .6-30.7.6-68.3v-68.3l-9.8 4.8c-13.5 6.6-24.4 8.9-44.2 9.1-8.5.1-42.4.1-75.2-.1L307 201v-76.3c0-49.4.4-79.4 1.1-85.2 1.4-11.4 4.9-23.6 9.4-32.5l3.5-7H191l3.5 7zM260 110v20h36v8h-36v99l90.3.2 90.2.3.3 3.7.3 3.8H260v146.5l13.7 13.7 13.7 13.7-2.4 2.6-2.3 2.5-11.1-10.8-11.1-10.7-.3 36.2-.2 36.3h-8v-80.5L238.5 381c-7.4-7.4-13.5-13.8-13.5-14.1 0-.3 1-1.9 2.1-3.4l2.2-2.7 11.3 11.3 11.4 11.4V245H78v-8h174v-99h-36v-8h36V90h8v20z" fill="#FFF"/><path d="M0 256v255h191.1l3.6-7.6c1.9-4.2 4.7-12 6.1-17.3l2.7-9.6.3-82.8.3-82.7h-72.9c-86.7 0-87.6.1-107.6 10.1-4.3 2.1-8 3.9-8.2 3.9-.2 0-.4-31.3-.4-69.5V186l6.3 3.5c3.4 1.9 9.3 4.6 13.1 6 13.7 5.1 19.9 5.5 97.9 5.5H204v-78.8c0-68-.2-80.1-1.6-88.3-1.7-9.8-5-20.1-9-28.2L191 1H0v255zM318.4 6.2c-1.5 2.9-3.8 8.4-5.1 12.3-5.2 15.2-5.3 17.7-5.3 103.1V201h71.8c76.4 0 82.5-.3 96.2-5 3.6-1.2 9.8-3.9 13.8-6l7.2-3.9v69.4c0 38.2-.3 69.5-.7 69.5-.3 0-2.9-1.3-5.7-2.9-2.8-1.5-8.4-4-12.4-5.5-15.2-5.4-18.2-5.6-97.4-5.6h-72.9l.3 82.7.3 82.8 2.7 9.6c1.4 5.3 4.2 13.1 6.1 17.3l3.6 7.6H512V1H321l-2.6 5.2z" fill="#3CF"/><path d="M204.2 51c0 1.4.2 1.9.5 1.2.2-.6.2-1.8 0-2.5-.3-.6-.5-.1-.5 1.3zm102.9-.4c0 1.1.3 1.4.6.6.3-.7.2-1.6-.1-1.9-.3-.4-.6.2-.5 1.3zM204.5 136c0 36 .1 50.8.2 32.7.2-18 .2-47.4 0-65.5-.1-18-.2-3.2-.2 32.8zm103 .5c0 35.7.1 50.2.2 32.2.2-18.1.2-47.3 0-65-.1-17.7-.2-3-.2 32.8zM69.8 310.7c1.7.2 4.7.2 6.5 0 1.7-.2.3-.4-3.3-.4-3.6 0-5 .2-3.2.4zm366 0c1.7.2 4.7.2 6.5 0 1.7-.2.3-.4-3.3-.4-3.6 0-5 .2-3.2.4zM204.5 376c0 36 .1 50.8.2 32.7.2-18 .2-47.4 0-65.5-.1-18-.2-3.2-.2 32.8zm103-.5c0 35.7.1 50.2.2 32.2.2-18.1.2-47.3 0-65-.1-17.7-.2-3-.2 32.8zm-103.4 85.1c0 1.1.3 1.4.6.6.3-.7.2-1.6-.1-1.9-.3-.4-.6.2-.5 1.3zm103.1.4c0 1.4.2 1.9.5 1.2.2-.6.2-1.8 0-2.5-.3-.6-.5-.1-.5 1.3z" fill="#9CF"/><path d="M307.1 46.6c0 1.1.3 1.4.6.6.3-.7.2-1.6-.1-1.9-.3-.4-.6.2-.5 1.3zM15.2 255.7c-.1 38.1.1 69.3.6 69.3.6 0 .6-50.4-.1-114-.1-13.5-.3 6.7-.5 44.7zm480.6.3c-.2 38 0 69 .5 69 .4 0 .7-31.1.7-69 0-38-.2-69-.5-69s-.6 31.1-.7 69zM69.3 201.7c3.1.2 8.3.2 11.5 0 3.1-.2.5-.3-5.8-.3s-8.9.1-5.7.3zm362 0c3.1.2 8.3.2 11.5 0 3.1-.2.5-.3-5.8-.3s-8.9.1-5.7.3zm-370 109c.9.2 2.5.2 3.5 0 .9-.3.1-.5-1.8-.5-1.9 0-2.7.2-1.7.5zm49.4 0c17.2.2 45.4.2 62.5 0 17.2-.1 3.2-.2-31.2-.2s-48.4.1-31.3.2zm228.1 0c17.1.2 45.3.2 62.5 0 17.1-.1 3.1-.2-31.3-.2s-48.4.1-31.2.2zm108.5 0c.9.2 2.5.2 3.5 0 .9-.3.1-.5-1.8-.5-1.9 0-2.7.2-1.7.5zM307.1 465.6c0 1.1.3 1.4.6.6.3-.7.2-1.6-.1-1.9-.3-.4-.6.2-.5 1.3z" fill="#CFF"/><path d="M47.2 511.7c26.2.2 69.4.2 96 0 26.6-.1 5.1-.2-47.7-.2-52.8 0-74.5.1-48.3.2zm321 0c26.2.2 69.4.2 96 0 26.6-.1 5.1-.2-47.7-.2-52.8 0-74.5.1-48.3.2z" fill="#9FF"/><path d="M243.5 386c4.4 4.4 8.2 8 8.5 8 .2 0-3.1-3.6-7.5-8s-8.2-8-8.5-8c-.2 0 3.1 3.6 7.5 8zm16.5 16.4c0 .2.8 1 1.8 1.7 1.5 1.3 1.6 1.2.3-.4s-2.1-2.1-2.1-1.3z" fill="#FCC"/><path d="M253 110.5V131h-36v6h36v101H79v6h174v141.5l-11.9-11.9-11.9-11.9-1.8 2.8-1.8 2.7 13.7 13.5 13.7 13.5V475h6v-37c0-20.4.3-37 .7-37 .4 0 5.8 5 11.8 11l11.1 11.1 1.9-2.1c1.9-2.1 1.8-2.2-11.8-15.8L259 391.5V244h181v-6H259V137h36v-6h-36V90h-6v20.5z" fill="#C00"/><path d="M252.4 110.5c0 11 .2 15.6.3 10.3.2-5.3.2-14.3 0-20-.1-5.7-.3-1.3-.3 9.7zm-36.1 23.7.2 3.3 17.8.3 17.7.2v99l-86.5.3-86.5.2h173.5v-100l-17.7-.3-17.7-.2-.5-3c-.6-2.9-.6-2.9-.3.2zm78.8-.5-.1 3.3-17.7.3-17.8.2 17.8.3c19.1.2 19.4.1 18.4-5-.3-1.8-.5-1.5-.6.9zm54.6 104 90.2.3.4 2.8c.4 2.5.4 2.5.3-.3l-.1-3h-181l90.2.2zm-97.2 76.8c0 38.5.1 54.1.2 34.7.2-19.5.2-51 0-70-.1-19.1-.2-3.2-.2 35.3zm-20.5 50c1.3 1.4 2.6 2.5 2.8 2.5.3 0-.5-1.1-1.8-2.5s-2.6-2.5-2.8-2.5c-.3 0 .5 1.1 1.8 2.5zm-2 8c3 3 5.7 5.5 5.9 5.5.3 0-1.9-2.5-4.9-5.5-3-3-5.7-5.5-5.9-5.5-.3 0 1.9 2.5 4.9 5.5zm22.5 61.5c0 22.3.1 31.4.2 20.3.2-11.2.2-29.4 0-40.5-.1-11.2-.2-2.1-.2 20.2z" fill="#F99"/><path d="M259.4 110.5c0 11 .2 15.6.3 10.3.2-5.3.2-14.3 0-20-.1-5.7-.3-1.3-.3 9.7zm.1 77c0 27.5.1 38.6.2 24.7.2-13.9.2-36.4 0-50-.1-13.6-.2-2.2-.2 25.3zm0 130.5c0 40.4.1 57 .2 36.8.2-20.3.2-53.3 0-73.5-.1-20.3-.2-3.7-.2 36.7zm0 120c0 20.1.1 28.3.2 18.3.2-10.1.2-26.5 0-36.5-.1-10.1-.2-1.9-.2 18.2z" fill="#FC9"/><path d="M225.2 130.7c4.8.2 12.9.2 18 0 5.1-.1 1.2-.3-8.7-.3-9.9 0-14.1.2-9.3.3zm43 0c4.8.2 12.9.2 18 0 5.1-.1 1.2-.3-8.7-.3-9.9 0-14.1.2-9.3.3zM259 391.4c0 .2.8 1 1.8 1.7 1.5 1.3 1.6 1.2.3-.4s-2.1-2.1-2.1-1.3z" fill="#C36"/><path d="M122.3 244.7c24 .2 63.4.2 87.5 0 24-.1 4.3-.2-43.8-.2-48.1 0-67.8.1-43.7.2zm181.4 0c24.8.2 65.8.2 91 0 25.2-.1 4.9-.2-45.2-.2-50 0-70.7.1-45.8.2zM274 406.5c6.9 6.9 12.7 12.5 13 12.5.2 0-5.1-5.6-12-12.5S262.3 394 262 394c-.2 0 5.1 5.6 12 12.5zm-7 1.8c0 .1 3.5 3.6 7.8 7.7l7.7 7.5-7.5-7.8c-6.9-7.1-8-8.2-8-7.4z" fill="#C33"/><path d="M78.2 241c0 1.9.2 2.7.5 1.7.2-.9.2-2.5 0-3.5-.3-.9-.5-.1-.5 1.8zM237 369.3c0 .1 3.5 3.6 7.8 7.7l7.7 7.5-7.5-7.8c-6.9-7.1-8-8.2-8-7.4z" fill="#F66"/><path d="M263 404.5c1.9 1.9 3.6 3.5 3.9 3.5.3 0-1-1.6-2.9-3.5s-3.6-3.5-3.9-3.5c-.3 0 1 1.6 2.9 3.5z" fill="#C03"/></svg>